<svg width="656" height="166" viewBox="0 0 656 166" fill="none" xmlns="http://www.w3.org/2000/svg">
<path fill-rule="evenodd" clip-rule="evenodd" d="M69.8753 118.328L69.8644 118.333C60.7349 122.843 50.0937 125 38.1 125H0.549988V10.45H38.1C50.113 10.45 60.7749 12.7146 69.9181 17.4439C79.1581 22.0712 86.3035 28.8027 91.2066 37.5963C96.1984 46.3693 98.6 56.5457 98.6 67.95C98.6 79.3597 96.1962 89.5403 91.1995 98.3161C86.2855 107.023 79.1282 113.701 69.8861 118.322L69.8753 118.328ZM86.85 95.85C91.35 87.95 93.6 78.65 93.6 67.95C93.6 57.25 91.35 47.95 86.85 40.05C82.45 32.15 76.05 26.1 67.65 21.9C59.35 17.6 49.5 15.45 38.1 15.45H5.54999V120H38.1C49.5 120 59.35 117.95 67.65 113.85C76.05 109.65 82.45 103.65 86.85 95.85ZM65.2779 40.9986L65.2657 40.9861C59.3775 34.932 50.5944 31.55 38.1 31.55H24.2V103.75H38.1C50.7357 103.75 59.5771 100.444 65.4523 94.5766C71.3859 88.552 74.65 79.9069 74.65 67.95C74.65 55.8949 71.3369 47.1418 65.2902 41.0111L65.2779 40.9986ZM69 98.1C61.9 105.2 51.6 108.75 38.1 108.75H19.2V26.55H38.1C51.5 26.55 61.75 30.2 68.85 37.5C76.05 44.8 79.65 54.95 79.65 67.95C79.65 80.85 76.1 90.9 69 98.1ZM190.664 89H126.21C127.255 93.3691 129.249 96.7431 132.052 99.3353C136.174 102.956 141.114 104.8 147.155 104.8C152.281 104.8 156.12 103.635 158.999 101.646C162.134 99.448 164.28 96.608 165.532 93.0074L166.7 89.65H191.537L189.771 95.9914C187.275 104.957 182.237 112.332 174.774 117.985L174.755 118L174.735 118.015C167.117 123.67 157.816 126.35 147.155 126.35C138.578 126.35 130.717 124.417 123.697 120.454L123.681 120.446L123.666 120.437C116.736 116.461 111.293 110.826 107.368 103.649L107.36 103.635L107.352 103.621C103.404 96.2884 101.505 87.9512 101.505 78.75C101.505 69.5736 103.344 61.292 107.189 54.0542C111.021 46.8416 116.44 41.2264 123.408 37.3393C130.445 33.37 138.407 31.45 147.155 31.45C155.704 31.45 163.474 33.3205 170.32 37.1999C177.118 41.0522 182.391 46.4246 186.043 53.2529C189.788 59.967 191.605 67.5089 191.605 75.75C191.605 78.541 191.444 81.4637 191.128 84.5145L190.664 89ZM181.655 55.65C178.455 49.65 173.855 44.95 167.855 41.55C161.855 38.15 154.955 36.45 147.155 36.45C139.155 36.45 132.055 38.2 125.855 41.7C119.755 45.1 115.005 50 111.605 56.4C108.205 62.8 106.505 70.25 106.505 78.75C106.505 87.25 108.255 94.75 111.755 101.25C115.255 107.65 120.055 112.6 126.155 116.1C132.355 119.6 139.355 121.35 147.155 121.35C156.955 121.35 165.155 118.9 171.755 114C176.904 110.099 180.714 105.316 183.185 99.65C183.881 98.0534 184.471 96.3867 184.955 94.65H170.255C168.655 99.25 165.855 102.95 161.855 105.75C157.955 108.45 153.055 109.8 147.155 109.8C139.955 109.8 133.805 107.55 128.705 103.05C124.784 99.4428 122.247 94.7595 121.093 89C120.775 87.4149 120.563 85.7482 120.455 84H186.155C186.455 81.1 186.605 78.35 186.605 75.75C186.605 68.25 184.955 61.55 181.655 55.65ZM164.793 62.1644L164.777 62.139C162.982 59.1736 160.572 56.9951 157.459 55.5164L157.391 55.4838L157.323 55.4491C154.195 53.8447 150.638 53 146.555 53C140.833 53 136.146 54.7806 132.214 58.3032C129.595 60.7109 127.662 63.847 126.542 67.9H167.03C166.58 65.7113 165.824 63.8233 164.808 62.1897L164.793 62.1644ZM172.113 67.9C172.374 69.4816 172.505 71.1482 172.505 72.9H120.605C120.762 71.1475 121.023 69.4809 121.387 67.9C122.644 62.4448 125.133 58.0114 128.855 54.6C133.755 50.2 139.655 48 146.555 48C151.355 48 155.705 49 159.605 51C163.605 52.9 166.755 55.75 169.055 59.55C170.58 62.0035 171.599 64.7869 172.113 67.9ZM214.797 122.794L214.759 122.777C209.097 120.285 204.43 116.796 200.947 112.233L200.929 112.209L200.91 112.184C197.411 107.478 195.488 102.089 195.131 96.1495L194.813 90.85H218.758L219.199 95.3645C219.457 98.0135 220.604 100.117 222.932 101.907C225.35 103.693 228.758 104.8 233.572 104.8C238.079 104.8 240.979 103.801 242.83 102.382C244.71 100.941 245.372 99.4564 245.372 97.65C245.372 96.6103 245.149 95.9725 244.892 95.5469C244.634 95.1195 244.166 94.6146 243.226 94.1156L243.173 94.0874L243.121 94.0579C240.506 92.5872 236.071 90.9655 229.493 89.2964L229.473 89.2915L229.454 89.2864C223.233 87.6549 218.003 85.9901 213.824 84.2758L213.752 84.2461L213.68 84.2141C209.207 82.213 205.324 79.3236 202.059 75.5925L202.005 75.5302L201.952 75.4662C198.358 71.0726 196.772 65.5658 196.772 59.4C196.772 54.1314 198.363 49.27 201.454 44.9438C204.554 40.6027 208.865 37.3322 214.137 35.0326C219.478 32.6024 225.441 31.45 231.922 31.45C241.876 31.45 250.442 33.9797 257.146 39.4864C263.956 45.0806 267.504 52.7581 267.966 62.0003L268.229 67.25H244.659L244.334 62.598C244.126 59.6081 242.991 57.4641 240.919 55.7806L240.889 55.756L240.859 55.731C238.907 54.0935 235.966 53 231.472 53C227.245 53 224.488 53.9083 222.705 55.1997C221.022 56.4181 220.422 57.7008 220.422 59.4C220.422 60.8877 220.832 61.8535 221.52 62.6221C222.792 63.7961 224.401 64.8364 226.419 65.7019C228.918 66.6215 232.424 67.7136 236.994 68.9779C242.988 70.6038 248.016 72.2677 252.005 73.9884C256.436 75.7946 260.225 78.5678 263.325 82.2531C266.93 86.4119 268.603 91.6585 268.721 97.55L268.722 97.6V97.65C268.722 103.14 267.177 108.191 264.079 112.652C260.992 117.097 256.688 120.484 251.399 122.898L251.376 122.909L251.353 122.919C246.1 125.254 240.186 126.35 233.722 126.35C226.864 126.35 220.54 125.206 214.836 122.81L214.797 122.794ZM259.522 85.5C256.922 82.4 253.772 80.1 250.072 78.6C246.372 77 241.572 75.4 235.672 73.8C230.972 72.5 227.272 71.35 224.572 70.35C221.972 69.25 219.772 67.85 217.972 66.15C216.272 64.35 215.422 62.1 215.422 59.4C215.422 56 216.872 53.25 219.772 51.15C222.672 49.05 226.572 48 231.472 48C236.772 48 240.972 49.3 244.072 51.9C247.272 54.5 249.022 57.95 249.322 62.25H262.972C262.885 60.5022 262.673 58.8355 262.338 57.25C261.137 51.5784 258.349 46.945 253.972 43.35C248.372 38.75 241.022 36.45 231.922 36.45C226.022 36.45 220.772 37.5 216.172 39.6C211.572 41.6 208.022 44.35 205.522 47.85C203.022 51.35 201.772 55.2 201.772 59.4C201.772 64.7 203.122 69 205.822 72.3C208.622 75.5 211.922 77.95 215.722 79.65C219.622 81.25 224.622 82.85 230.722 84.45C237.422 86.15 242.372 87.9 245.572 89.7C248.772 91.4 250.372 94.05 250.372 97.65C250.372 101.15 248.872 104.05 245.872 106.35C242.872 108.65 238.772 109.8 233.572 109.8C227.972 109.8 223.422 108.5 219.922 105.9C216.522 103.3 214.622 99.95 214.222 95.85H200.122C200.226 97.5827 200.486 99.2494 200.902 100.85C201.687 103.868 203.027 106.652 204.922 109.2C207.822 113 211.772 116 216.772 118.2C221.772 120.3 227.422 121.35 233.722 121.35C239.622 121.35 244.822 120.35 249.322 118.35C253.922 116.25 257.472 113.4 259.972 109.8C262.472 106.2 263.722 102.15 263.722 97.65C263.622 92.65 262.222 88.6 259.522 85.5ZM301.641 32.8V125H277.991V32.8H301.641ZM290.041 29.45C286.147 29.45 282.666 28.0455 279.906 25.2855C277.146 22.5256 275.741 19.0443 275.741 15.15C275.741 11.2557 277.146 7.77439 279.906 5.01447C282.666 2.25456 286.147 0.850006 290.041 0.850006C293.878 0.850006 297.279 2.28771 299.927 5.06454C302.654 7.81644 304.041 11.2792 304.041 15.15C304.041 19.0208 302.654 22.4836 299.927 25.2356C297.279 28.0124 293.878 29.45 290.041 29.45ZM379.405 111.125C381.394 109.132 383.061 106.94 384.405 104.55V121.8C384.405 130.3 382.005 136.9 377.205 141.6C372.505 146.3 366.405 148.65 358.905 148.65C352.305 148.65 346.655 147.1 341.955 144C337.255 141 334.155 137 332.655 132H319.155C319.412 133.739 319.784 135.406 320.272 137C322.25 143.474 326.128 148.758 331.905 152.85C339.105 157.95 348.105 160.5 358.905 160.5C366.805 160.5 373.705 158.85 379.605 155.55C385.605 152.25 390.205 147.65 393.405 141.75C396.605 135.95 398.205 129.3 398.205 121.8V37.8H384.405V52.8C383.095 50.4305 381.428 48.2642 379.405 46.3014C377.416 44.3709 375.083 42.6371 372.405 41.1C367.105 38 360.905 36.45 353.805 36.45C346.505 36.45 339.855 38.2 333.855 41.7C327.955 45.2 323.305 50.15 319.905 56.55C316.505 62.85 314.805 70.2 314.805 78.6C314.805 86.9 316.505 94.3 319.905 100.8C323.305 107.3 327.955 112.35 333.855 115.95C339.855 119.55 346.505 121.35 353.805 121.35C360.905 121.35 367.105 119.75 372.405 116.55C375.067 114.943 377.4 113.135 379.405 111.125ZM379.405 117.791C378.025 118.874 376.552 119.887 374.99 120.83C368.801 124.567 361.68 126.35 353.805 126.35C345.64 126.35 338.095 124.324 331.283 120.237L331.267 120.228L331.251 120.218C324.529 116.116 319.269 110.37 315.475 103.118C311.654 95.8129 309.805 87.5999 309.805 78.6C309.805 69.5215 311.646 61.3336 315.497 54.1906C319.302 47.0345 324.574 41.3921 331.304 37.3997L331.32 37.3904L331.336 37.3811C338.14 33.412 345.667 31.45 353.805 31.45C361.645 31.45 368.739 33.1671 374.914 36.7745C376.506 37.6894 378.004 38.6757 379.405 39.7347V32.8H403.205V121.8C403.205 130.025 401.446 137.52 397.792 144.149C394.129 150.897 388.839 156.174 382.03 159.923C375.271 163.699 367.508 165.5 358.905 165.5C347.306 165.5 337.234 162.752 329.015 156.93C320.691 151.034 315.707 142.869 314.209 132.731L313.363 127H336.376L337.445 130.563C338.576 134.334 340.881 137.382 344.646 139.785L344.677 139.806L344.708 139.826C348.459 142.3 353.112 143.65 358.905 143.65C365.265 143.65 370.031 141.703 373.67 138.064L373.689 138.046L373.707 138.027C377.308 134.502 379.405 129.332 379.405 121.8V117.791ZM367.958 56.3821L367.898 56.3465C364.506 54.3274 360.746 53.3 356.505 53.3C352.227 53.3 348.439 54.2966 345.036 56.2412C341.709 58.1425 338.993 60.9341 336.899 64.7876C334.864 68.5307 333.755 73.0804 333.755 78.6C333.755 84.2215 334.865 88.8807 336.909 92.7322C339.002 96.5761 341.725 99.4278 345.075 101.431C348.468 103.361 352.243 104.35 356.505 104.35C360.777 104.35 364.559 103.357 367.958 101.418C371.41 99.4074 374.17 96.5556 376.252 92.7322C378.301 88.8698 379.405 84.257 379.405 78.75C379.405 73.2304 378.297 68.6807 376.262 64.9376C374.184 61.114 371.44 58.3254 368.019 56.416L367.958 56.3821ZM380.655 95.1C378.155 99.7 374.755 103.25 370.455 105.75C366.255 108.15 361.605 109.35 356.505 109.35C351.405 109.35 346.755 108.15 342.555 105.75C338.355 103.25 335.005 99.7 332.505 95.1C330.005 90.4 328.755 84.9 328.755 78.6C328.755 72.4 330.005 67 332.505 62.4C335.005 57.8 338.355 54.3 342.555 51.9C346.755 49.5 351.405 48.3 356.505 48.3C361.605 48.3 366.255 49.55 370.455 52.05C374.755 54.45 378.155 57.95 380.655 62.55C383.155 67.15 384.405 72.55 384.405 78.75C384.405 84.95 383.155 90.4 380.655 95.1ZM439.923 43.7035C441.689 42.1682 443.672 40.8504 445.873 39.75C450.573 37.45 455.723 36.3 461.323 36.3C471.323 36.3 479.423 39.35 485.623 45.45C491.823 51.45 494.923 60.15 494.923 71.55V120H481.423V73.5C481.423 65.3 479.373 59.05 475.273 54.75C471.173 50.35 465.573 48.15 458.473 48.15C451.273 48.15 445.523 50.4 441.223 54.9C437.023 59.4 434.923 65.95 434.923 74.55V120H421.273V37.8H434.923V49.5C436.331 47.3094 437.998 45.3773 439.923 43.7035ZM439.923 37.4291V32.8H416.273V125H439.923V74.55C439.923 66.7281 441.826 61.5951 444.858 58.333C448.063 54.9907 452.418 53.15 458.473 53.15C464.458 53.15 468.631 54.9571 471.615 58.1586L471.634 58.1796L471.654 58.2004C474.576 61.2653 476.423 66.0901 476.423 73.5V125H499.923V71.55C499.923 59.2571 496.561 49.0871 489.115 41.8715C481.84 34.7221 472.415 31.3 461.323 31.3C455.016 31.3 449.107 32.6009 443.675 35.2589L443.656 35.2683L443.637 35.2779C442.338 35.9274 441.099 36.6446 439.923 37.4291ZM596.279 89H531.825C532.87 93.3689 534.864 96.7429 537.667 99.335C541.789 102.956 546.729 104.8 552.77 104.8C557.895 104.8 561.732 103.636 564.611 101.648C567.748 99.45 569.895 96.6092 571.147 93.0074L572.315 89.65H597.153L595.387 95.9914C592.89 104.957 587.852 112.332 580.389 117.985L580.37 118L580.35 118.015C572.732 123.67 563.431 126.35 552.77 126.35C544.193 126.35 536.332 124.417 529.312 120.454L529.297 120.446L529.282 120.437C522.352 116.461 516.908 110.826 512.983 103.649L512.975 103.635L512.968 103.621C509.019 96.2884 507.12 87.9512 507.12 78.75C507.12 69.5736 508.959 61.292 512.804 54.0542C516.636 46.8416 522.055 41.2264 529.024 37.3393C536.06 33.37 544.022 31.45 552.77 31.45C561.319 31.45 569.089 33.3205 575.935 37.1999C582.733 41.0522 588.006 46.4246 591.658 53.253C595.403 59.9671 597.22 67.5089 597.22 75.75C597.22 78.541 597.059 81.4637 596.743 84.5145L596.279 89ZM587.27 55.65C584.07 49.65 579.47 44.95 573.47 41.55C567.47 38.15 560.57 36.45 552.77 36.45C544.77 36.45 537.67 38.2 531.47 41.7C525.37 45.1 520.62 50 517.22 56.4C513.82 62.8 512.12 70.25 512.12 78.75C512.12 87.25 513.87 94.75 517.37 101.25C520.87 107.65 525.67 112.6 531.77 116.1C537.97 119.6 544.97 121.35 552.77 121.35C562.57 121.35 570.77 118.9 577.37 114C582.519 110.099 586.329 105.316 588.8 99.65C589.496 98.0534 590.086 96.3867 590.57 94.65H575.87C574.27 99.25 571.47 102.95 567.47 105.75C563.57 108.45 558.67 109.8 552.77 109.8C545.57 109.8 539.42 107.55 534.32 103.05C530.399 99.4428 527.862 94.7595 526.708 89C526.391 87.4149 526.178 85.7482 526.07 84H591.77C592.07 81.1 592.22 78.35 592.22 75.75C592.22 68.25 590.57 61.55 587.27 55.65ZM570.408 62.1644L570.392 62.139C568.598 59.1736 566.188 56.9951 563.075 55.5164L563.006 55.4838L562.938 55.4491C559.81 53.8447 556.253 53 552.17 53C546.448 53 541.762 54.7802 537.831 58.302C535.211 60.7099 533.278 63.8465 532.158 67.9H572.645C572.195 65.7113 571.439 63.8233 570.424 62.1897L570.408 62.1644ZM577.728 67.9C577.989 69.4816 578.12 71.1482 578.12 72.9H526.22C526.377 71.1475 526.638 69.4809 527.002 67.9C528.259 62.4448 530.748 58.0114 534.47 54.6C539.37 50.2 545.27 48 552.17 48C556.97 48 561.32 49 565.22 51C569.22 52.9 572.37 55.75 574.67 59.55C576.195 62.0035 577.215 64.7869 577.728 67.9ZM645.438 36.5872C647.034 36.3957 648.701 36.3 650.438 36.3V50.4H646.838C631.537 50.4 623.888 58.7 623.888 75.3V120H610.237V37.8H623.888V51.15C625.238 48.5059 626.904 46.1941 628.888 44.2146C630.43 42.6755 632.163 41.3373 634.088 40.2C637.366 38.3055 641.15 37.1012 645.438 36.5872ZM628.888 37.6478C629.736 37.0248 630.621 36.4405 631.544 35.8954L631.565 35.8829L631.586 35.8707C637.004 32.7403 643.361 31.3 650.438 31.3H655.438V55.4H646.838C640.068 55.4 635.879 57.2173 633.302 60.0137C630.653 62.887 628.888 67.6742 628.888 75.3V125H605.237V32.8H628.888V37.6478ZM283.441 21.75C285.241 23.55 287.441 24.45 290.041 24.45C292.541 24.45 294.641 23.55 296.341 21.75C298.141 19.95 299.041 17.75 299.041 15.15C299.041 12.55 298.141 10.35 296.341 8.55001C294.641 6.75001 292.541 5.85001 290.041 5.85001C287.441 5.85001 285.241 6.75001 283.441 8.55001C281.641 10.35 280.741 12.55 280.741 15.15C280.741 17.75 281.641 19.95 283.441 21.75ZM296.641 37.8H282.991V120H296.641V37.8Z" fill="white"/>
</svg>
